<?xml version="1.0" encoding="UTF-8" standalone="no"?>
<!-- Created with Inkscape (http://www.inkscape.org/) -->

<svg
   xmlns:dc="http://purl.org/dc/elements/1.1/"
   xmlns:cc="http://creativecommons.org/ns#"
   xmlns:rdf="http://www.w3.org/1999/02/22-rdf-syntax-ns#"
   xmlns:svg="http://www.w3.org/2000/svg"
   xmlns="http://www.w3.org/2000/svg"
   xmlns:sodipodi="http://sodipodi.sourceforge.net/DTD/sodipodi-0.dtd"
   xmlns:inkscape="http://www.inkscape.org/namespaces/inkscape"
   width="262.20471"
   height="372.04724"
   id="svg4209"
   version="1.1"
   inkscape:version="0.48.5 r10040"
   sodipodi:docname="IconoAlergenoApio.svg">
  <defs
     id="defs4211" />
  <sodipodi:namedview
     id="base"
     pagecolor="#ffffff"
     bordercolor="#666666"
     borderopacity="1.0"
     inkscape:pageopacity="0.0"
     inkscape:pageshadow="2"
     inkscape:zoom="0.40062104"
     inkscape:cx="322.16755"
     inkscape:cy="488.13389"
     inkscape:document-units="px"
     inkscape:current-layer="layer1"
     showgrid="false"
     inkscape:window-width="1280"
     inkscape:window-height="924"
     inkscape:window-x="0"
     inkscape:window-y="28"
     inkscape:window-maximized="1" />
  <metadata
     id="metadata4214">
    <rdf:RDF>
      <cc:Work
         rdf:about="">
        <dc:format>image/svg+xml</dc:format>
        <dc:type
           rdf:resource="http://purl.org/dc/dcmitype/StillImage" />
        <dc:title></dc:title>
      </cc:Work>
    </rdf:RDF>
  </metadata>
  <g
     inkscape:label="Capa 1"
     inkscape:groupmode="layer"
     id="layer1"
     transform="translate(0,-680.31494)">
    <g
       id="g3071"
       transform="matrix(5.5766335,0,0,5.5766335,-1063.8513,-974.91628)">
      <text
         sodipodi:linespacing="125%"
         id="text4033-9-0"
         y="354.9216"
         x="214.41161"
         style="font-size:15px;font-style:normal;font-weight:normal;text-align:center;line-height:125%;letter-spacing:0px;word-spacing:0px;text-anchor:middle;fill:#000000;fill-opacity:1;stroke:none;font-family:Sans"
         xml:space="preserve"><tspan
           style="font-size:5.5px"
           id="tspan4037-1-7"
           y="354.9216"
           x="214.41161"
           sodipodi:role="line">APIO</tspan></text>
      <g
         transform="translate(1.0695337,0)"
         id="g3060">
        <path
           sodipodi:type="arc"
           style="fill:#54bf36;fill-opacity:1;stroke:#54bf36;stroke-width:3;stroke-linecap:round;stroke-linejoin:round;stroke-miterlimit:4;stroke-opacity:1;stroke-dasharray:none;stroke-dashoffset:0"
           id="path3230-2-7"
           sodipodi:cx="21.573027"
           sodipodi:cy="29.287827"
           sodipodi:rx="18.363815"
           sodipodi:ry="18.720394"
           d="m 39.936842,29.287827 c 0,10.338988 -8.22176,18.720394 -18.363815,18.720394 -10.142055,0 -18.3638157,-8.381406 -18.3638157,-18.720394 0,-10.338989 8.2217607,-18.720395 18.3638157,-18.720395 10.142055,0 18.363815,8.381406 18.363815,18.720395 z"
           transform="matrix(1.0403305,0,0,1.0205147,190.76606,296.10823)" />
        <g
           id="g4042"
           transform="translate(-165.22728,296.43125)">
          <path
             inkscape:connector-curvature="0"
             id="path3262"
             d="m 386.12805,18.563945 -0.0381,-0.323933 -0.1048,-0.209603 -0.16197,-0.219132 -0.15244,-0.114329 -0.17149,-0.09527 -0.29535,-0.05716 -0.71456,-0.0095 -0.44779,-0.04764 -0.13338,-0.05717 0.16196,0.161966 0.1048,0.171494 0.12386,0.247714 0.0381,0.257241 -0.01,0.266768 -0.0857,0.190549 -0.0286,0.152439 0.0572,0.181021 0.2096,0.133384 0.2763,0.123857 0.33346,0.06669 0.5907,-0.08575 0.24771,-0.161967 0.13339,-0.161966 0.0476,-0.181021 z"
             style="fill:#ffffff;fill-opacity:1;stroke:#ffffff;stroke-width:0.05;stroke-linecap:round;stroke-linejoin:round;stroke-miterlimit:4;stroke-opacity:1;stroke-dasharray:none" />
          <path
             inkscape:connector-curvature="0"
             id="path4032"
             d="m 374.58079,18.62111 0.29535,-0.11433 0.12386,-0.161966 0.0762,-0.152439 0.0191,-0.200076 -0.0381,-0.209604 -0.0857,-0.257241 -0.11433,-0.40968 -0.0572,-0.181021 -0.01,-0.295351 0.0762,-0.209603 0.15243,-0.09528 0.20008,-0.08575 0.21913,-0.04764 0.24772,0.01906 0.22865,0.09528 0.21914,0.152439 0.21913,0.114329 0.28582,0.114329 0.29535,-0.01906 0.2096,-0.08575 0.21913,-0.171494 0.2763,-0.33346 0.18102,-0.238186 0.21913,-0.209604 0.21913,-0.133384 0.29535,-0.04764 0.2763,0.03811 0.51448,0.190549 0.30488,0.08575 0.28582,0.03811 0.20008,0 0.30488,-0.114329 0.33346,-0.114329 0.43826,-0.08575 0.30488,0.01905 0.3144,0.123856 0.32394,0.171494 0.23818,0.247714 0.29535,0.390625 0.21913,0.342987 0.19055,0.381098 -0.19055,-0.03811 -0.58117,-0.01906 -0.32393,0.01906 -0.29535,0.03811 -0.32394,0.06669 -0.39062,0.142912 -0.30488,0.123856 -0.12386,0.142912 -0.0667,0.209604 0,0.181021 0.0572,0.209604 0.13338,0.419207 -0.49543,-0.200076 -0.4192,-0.190549 -0.49543,-0.238186 -0.53354,-0.209604 -0.34298,-0.114329 -0.47638,-0.07622 -0.34298,0.01905 -0.30488,0.161967 -0.23819,0.238186 -0.0953,0.33346 -0.0762,0.543064 -0.0953,0.438262 -0.16196,0.390625 -0.20961,0.08575 -0.28582,-0.03811 -0.34299,-0.161967 -0.46684,-0.323933 -0.49543,-0.466844 z"
             style="fill:#ffffff;fill-opacity:1;stroke:#ffffff;stroke-width:0.05;stroke-linecap:round;stroke-linejoin:round;stroke-miterlimit:4;stroke-opacity:1;stroke-dasharray:none" />
          <path
             sodipodi:nodetypes="ccccccccccccccccccccccccc"
             inkscape:connector-curvature="0"
             id="path3283"
             d="m 372.85523,20.883718 0,-0.586684 0.0743,-0.464037 0.37431,-0.571289 0.17256,-0.345108 c 0.0299,-0.07172 0.0391,-0.177946 0.0294,-0.31573 -0.0886,-0.151303 -0.20614,-0.186948 -0.32016,-0.23662 l -0.50793,-0.157512 c -0.1988,0.01437 -0.41958,-0.01844 -0.55748,0.06902 -0.31365,0.138984 -0.26232,0.204973 -0.33484,0.295731 l -0.24158,0.586685 -0.17255,0.276086 -0.24158,0.138044 -0.31556,0.08389 c -0.0195,0.05464 -0.0689,0.103131 0.0103,0.133088 l 0.3106,0.345108 c 0.15463,0.167444 0.28124,0.348905 0.30476,0.581906 l 0.006,0.310774 c -0.0241,0.198781 -0.12535,0.351241 -0.2122,0.512354 l -0.17255,0.172555 0.41413,-0.103533 0.49342,-0.103356 0.43837,-0.172731 0.3106,-0.172554 z"
             style="fill:#ffffff;fill-opacity:1;stroke:#ffffff;stroke-width:0.05;stroke-linecap:round;stroke-linejoin:round;stroke-miterlimit:4;stroke-opacity:1;stroke-dasharray:none" />
          <path
             sodipodi:nodetypes="ccccccccccccccccccccccccccccccccccccccccccccccccccccccccccccccccccccccccccccccccccccccccccccccccccccccccccccccccscccccccccccccccccccccccccccccccccccccccccccc"
             inkscape:connector-curvature="0"
             id="path3265"
             d="m 374.06958,18.91538 -0.27864,0.479275 -0.1771,0.515196 -0.0644,0.450797 -0.0644,0.386397 -0.0483,0.338098 -0.1449,0.209298 -0.1932,0.225398 -0.20929,0.1127 -0.3864,0.257598 -0.3703,0.0966 -0.53129,0.144899 -0.5635,0.112699 -0.3864,0.0966 -0.2737,0.0966 0.5313,0.225398 0.5152,0.177099 0.57959,0.177098 0.8372,0.273698 0.74059,0.144899 0.2898,0.160999 0.4025,0.611796 0.22539,0.177098 0.2415,0.112699 0.3864,0 0.2093,0.1127 0.1932,0.144899 0.0966,0.273697 -0.0966,0.305898 0,0.241498 0.0483,0.1288 0.17709,0.112699 0.0805,1.36849 0.0161,3.509774 -0.17709,1.27189 -0.1932,2.479382 -0.1449,1.481189 -0.0805,1.593888 0,0.949893 0.0644,1.38459 0.1932,0.853294 0.30589,0.627895 0.2737,0.338098 0.1127,0.0483 0.322,0.740595 0.3703,0.482996 0.45079,0.338098 0.3542,0.193198 0.0161,0.0483 0.4508,0.0644 0.64399,0.0805 0.6279,-0.0322 0.2576,-0.177099 0,0 0.32199,-0.193198 0.2898,-0.402497 0.2737,-0.338098 0.161,-0.273698 c 0.22536,-0.147573 0.37332,-0.155811 0.71705,-0.516449 l 0.36164,-0.626642 0.2576,-0.660095 0.1771,-0.853294 0.0644,-0.837194 -0.0644,-1.416789 -0.0966,-1.336291 -0.0805,-1.078692 -0.0483,-1.046492 -0.0322,-1.465089 0.0644,-2.72088 -0.0966,-2.318383 0,-1.32019 -0.0322,-1.014293 0.10776,-0.02173 0.11892,0.109017 0.21804,0.06937 0.14866,0.02973 0.0595,-0.05946 0.26759,-0.346872 0.32705,-0.346872 0.17839,-0.227945 0.0396,-0.138749 0,-0.138749 0.0297,-0.09911 0.16849,-0.287409 0.35678,-0.30723 0.3766,-0.257676 0.43607,-0.218034 0.51535,-0.208124 0.42616,-0.247766 0.31714,-0.218034 0.22795,-0.178391 0.12884,-0.138749 0.10901,-0.138749 -0.17839,0 -0.34687,-0.05946 -0.28741,-0.0892 -0.17839,-0.118927 -0.0793,-0.128839 -0.0198,-0.218034 0.14866,-0.31714 0.31714,-0.436068 0.26759,-0.327052 0.10902,-0.178391 0.0793,-0.14866 0.0396,-0.09911 -0.15857,0.07929 -0.25767,0.07928 -0.31714,0.07928 -0.30723,0.01982 -0.25768,0.01982 -0.35678,-0.01982 -0.24777,-0.05946 c 0,0 -0.17839,-0.15857 -0.17839,-0.07929 0,0.07929 -0.2775,-0.168481 -0.2775,-0.168481 l -0.19821,-0.208124 -0.0892,-0.267587 0,-0.257677 0.0793,-0.416246 0.0595,-0.257677 -0.0793,-0.178392 -0.16848,-0.15857 -0.39643,-0.128838 -0.3766,-0.04955 -0.47571,0 -0.38652,0.01982 -0.31714,0.05946 -0.26759,0.118928 -0.15857,0.257676 -0.01,0.396426 0.0496,0.327051 -0.0694,0.267587 -0.1883,0.06937 -0.31714,-0.02973 -0.47571,-0.14866 -0.4658,-0.15857 -0.555,-0.218034 -0.50544,-0.188302 -0.34687,-0.07929 -0.24777,-0.02973 -0.19821,0.0099 -0.29732,0.07928 -0.1883,0.208124 -0.0595,0.336961 -0.0793,0.426158 -0.0595,0.31714 -0.10901,0.257677 -0.15857,0.218034 -0.21804,0.168481 -0.24776,0.05946 -0.33696,0 -0.32706,-0.0892 -0.40633,-0.237855 -0.44598,-0.297319 -0.32705,-0.29732 -0.23786,-0.218034 -0.24776,-0.198212 z"
             style="fill:#ffffff;fill-opacity:1;stroke:#ffffff;stroke-width:0.05;stroke-linecap:round;stroke-linejoin:round;stroke-miterlimit:4;stroke-opacity:1;stroke-dasharray:none" />
          <path
             inkscape:connector-curvature="0"
             id="path4036"
             d="m 380.7073,23.051765 -0.0793,-0.981154 -0.0396,-0.812672 -0.0396,-0.208124 -0.10902,0.277498 -0.0892,0.30723 -0.0694,0.297319 -0.0496,0.327051 -0.01,0.267588 0.0297,0.376604 0.0297,0.713566 -0.0198,0.703655 -0.0297,1.040618 0.0793,-0.0099 -0.01,0.495532 0.0397,0.753209 0.0297,0.455889 0.0595,0.832494 0.14866,2.447928 -0.0396,1.060438 -0.0297,0.842404 0.0198,0.723477 -0.01,0.396426 0.0198,1.774004 0.10902,1.565881 0.0496,0.882047 0.0496,0.475711 0.17839,2.656051 0.0297,0.30723 -0.0396,0.376604 -0.0496,0.208123 -0.01,0.188303 0.21803,-0.168481 0.17839,-0.188302 0.0892,-0.138749 0.0892,-0.158571 0.10901,-0.356783 0.0991,-0.594638 0.0892,-1.486596 0,-1.040617 -0.0496,-1.268562 -0.0694,-1.328026 -0.0496,-0.891957 -0.0793,-1.100081 -0.0396,-0.376604 0,-0.961332 -0.0198,-0.77303 -0.0297,-0.852315 -0.0694,-3.805686 0,-1.169455 -0.0396,-0.356783 -0.0496,-0.426158 -0.0396,-0.445978 0,-0.327051 -0.0396,-0.237856 -0.0396,-0.118928 -0.0496,-0.06937 -0.0694,-0.01982 -0.10902,-0.02973 -0.0595,0 z"
             style="fill:#54bf36;fill-opacity:1;stroke:#54bf36;stroke-width:0.05;stroke-linecap:round;stroke-linejoin:round;stroke-miterlimit:4;stroke-opacity:1;stroke-dasharray:none" />
          <path
             inkscape:connector-curvature="0"
             id="path4038"
             d="m 376.00966,21.604811 0.43606,0.227945 0.38652,0.15857 0.23785,0.06938 0.2775,0.01982 0.16848,-0.0892 0.0198,-0.188302 -0.0793,-0.218034 0.0297,-0.05946 0.24777,0.317141 0.34687,0.47571 0.60455,0.872137 0.32705,0.515353 0.45589,0.654102 0.15857,0.426158 0.12884,0.406336 0.0496,0.346872 0.0793,0.02973 0,0.416247 0.0297,0.406336 0.0396,1.070349 -0.0694,2.091145 -0.0793,2.725426 0.10902,1.565881 0.1883,3.141673 0.0892,1.546059 0.0396,1.892932 -0.0793,0.991064 -0.24776,0.733388 -0.1883,0.297319 -0.28741,0.237855 -0.40634,0.198213 -0.30723,0.09911 -0.42616,0 -0.33696,-0.148659 -0.4658,-0.366694 -0.35678,-0.554996 -0.2775,-0.822583 -0.0694,-0.901868 0.0198,-0.723477 0.0198,-1.080259 0.0495,-0.545085 0.0793,-1.516328 0.21803,-1.734362 0.23786,-1.932575 0.12883,-1.427132 0.0297,-0.792851 0.01,-0.346872 0,-0.327052 -0.0198,-0.4658 0.0991,0.703656 0.0396,0.673923 0.0892,0.852315 0.0694,0.664013 0.15858,1.744273 0.11892,1.40731 0.10902,1.397401 0.0496,0.554995 0,0.891958 0,0.535174 -0.01,0.842405 -0.0496,0.862225 0.0892,0.138749 0.0991,0.05946 0.12884,-0.0099 0.10902,-0.06938 -0.01,-0.06937 0.0694,-1.446954 -0.0198,-0.862225 0.01,-0.386515 -0.0793,-1.486596 -0.13874,-1.754183 -0.14866,-1.585703 -0.29732,-2.973191 -0.12884,-1.625345 -0.12884,-1.169456 -0.0198,-0.0892 -0.0396,-0.0099 0.11892,-1.328026 0.0892,0.02973 -0.0297,-0.09911 -0.0496,-0.14866 0.01,-0.237855 -0.0297,-0.4658 0,-0.257677 -0.0396,-0.396425 -0.13875,-0.475711 -0.16848,-0.406336 -0.2775,-0.4658 -0.35678,-0.475711 -0.33696,-0.317141 -0.22795,-0.208123 z"
             style="fill:#54bf36;fill-opacity:1;stroke:#54bf36;stroke-width:0.05;stroke-linecap:round;stroke-linejoin:round;stroke-miterlimit:4;stroke-opacity:1;stroke-dasharray:none" />
          <path
             sodipodi:nodetypes="ccccccccccccccccccccccccccccccccccccccc"
             inkscape:connector-curvature="0"
             id="path4040"
             d="m 376.11169,40.862333 -0.0345,-1.172009 0.069,-1.758015 0.48259,-3.17132 0.44812,-2.861083 0.10341,-1.068597 0,-0.79283 0,-0.275767 0.0689,-4.102033 -0.20682,-0.79283 -0.17236,-0.275767 -0.21626,-0.332369 -0.29304,-0.344748 -0.44817,-0.344747 0.15514,0.430934 0.17237,0.293036 0.17237,0.32751 0,0.344747 0.0172,0.310273 -0.0345,0.32751 -0.0689,0.241323 0.0517,0.172374 0.0517,0.499883 0.0172,0.65502 0.0517,1.085955 0.0172,0.930818 -0.0517,1.189378 0,0.517121 -0.22409,2.240858 -0.15514,1.034243 -0.0862,1.103191 -0.0689,0.551596 -0.0516,1.430702 -0.0345,1.172141 -0.0345,0.72397 0.0345,0.758444 0.0517,0.448172 0.10343,0.379222 z"
             style="fill:#54bf36;fill-opacity:1;stroke:#54bf36;stroke-width:0.05;stroke-linecap:round;stroke-linejoin:round;stroke-miterlimit:4;stroke-opacity:1;stroke-dasharray:none" />
        </g>
      </g>
    </g>
  </g>
</svg>
