<?xml version="1.0" encoding="UTF-8" standalone="no"?>
<!-- Created with Inkscape (http://www.inkscape.org/) -->

<svg
   xmlns:dc="http://purl.org/dc/elements/1.1/"
   xmlns:cc="http://creativecommons.org/ns#"
   xmlns:rdf="http://www.w3.org/1999/02/22-rdf-syntax-ns#"
   xmlns:svg="http://www.w3.org/2000/svg"
   xmlns="http://www.w3.org/2000/svg"
   xmlns:sodipodi="http://sodipodi.sourceforge.net/DTD/sodipodi-0.dtd"
   xmlns:inkscape="http://www.inkscape.org/namespaces/inkscape"
   width="262.20471"
   height="372.04724"
   id="svg4209"
   version="1.1"
   inkscape:version="0.48.5 r10040"
   sodipodi:docname="IconoAlergenoPescado-Fish.svg">
  <defs
     id="defs4211" />
  <sodipodi:namedview
     id="base"
     pagecolor="#ffffff"
     bordercolor="#666666"
     borderopacity="1.0"
     inkscape:pageopacity="0.0"
     inkscape:pageshadow="2"
     inkscape:zoom="0.32234025"
     inkscape:cx="487.44456"
     inkscape:cy="621.26637"
     inkscape:document-units="px"
     inkscape:current-layer="layer1"
     showgrid="false"
     inkscape:window-width="1280"
     inkscape:window-height="924"
     inkscape:window-x="0"
     inkscape:window-y="28"
     inkscape:window-maximized="1" />
  <metadata
     id="metadata4214">
    <rdf:RDF>
      <cc:Work
         rdf:about="">
        <dc:format>image/svg+xml</dc:format>
        <dc:type
           rdf:resource="http://purl.org/dc/dcmitype/StillImage" />
        <dc:title></dc:title>
      </cc:Work>
    </rdf:RDF>
  </metadata>
  <g
     inkscape:label="Capa 1"
     inkscape:groupmode="layer"
     id="layer1"
     transform="translate(0,-680.31494)">
    <g
       id="g5444"
       transform="matrix(5.5766335,0,0,5.5766335,-980.45196,-1140.5133)">
      <text
         sodipodi:linespacing="125%"
         id="text4033-9-3"
         y="384.89944"
         x="199.20805"
         style="font-size:15px;font-style:normal;font-weight:normal;text-align:center;line-height:125%;letter-spacing:0px;word-spacing:0px;text-anchor:middle;fill:#000000;fill-opacity:1;stroke:none;font-family:Sans"
         xml:space="preserve"><tspan
           style="font-size:5.5px"
           id="tspan4037-1-5"
           y="384.89944"
           x="199.20805"
           sodipodi:role="line">PESCADO</tspan></text>
      <g
         id="g5437">
        <path
           sodipodi:type="arc"
           style="fill:#28429d;fill-opacity:1;stroke:#28429d;stroke-width:3;stroke-linecap:round;stroke-linejoin:round;stroke-miterlimit:4;stroke-opacity:1;stroke-dasharray:none;stroke-dashoffset:0"
           id="path3230-2-8"
           sodipodi:cx="21.573027"
           sodipodi:cy="29.287827"
           sodipodi:rx="18.363815"
           sodipodi:ry="18.720394"
           d="m 39.936842,29.287827 c 0,10.338988 -8.22176,18.720394 -18.363815,18.720394 -10.142055,0 -18.3638157,-8.381406 -18.3638157,-18.720394 0,-10.338989 8.2217607,-18.720395 18.3638157,-18.720395 10.142055,0 18.363815,8.381406 18.363815,18.720395 z"
           transform="matrix(1.0403305,0,0,1.0205147,176.88046,325.52)" />
        <g
           id="g4152"
           transform="translate(44.875963,326.33619)">
          <path
             sodipodi:nodetypes="ccccccccccccccccccccccccccccccccccccccccccccccccccccccccccc"
             inkscape:connector-curvature="0"
             id="path4134"
             d="m 139.75943,30.792767 1.27542,-0.599439 -1.50277,-1.219339 c 0.20121,-0.330159 0.38623,-0.660318 0.66841,-0.990477 0.5709,-0.672173 1.03207,-1.351204 1.80892,-2.010506 0.62862,-0.494255 1.23194,-1.012943 1.99232,-1.358778 0.56946,-0.292191 1.19674,-0.526558 1.83621,-0.748736 0.91106,-0.246684 1.97772,-0.487383 3.25637,-0.719928 0.47647,-0.145645 0.99623,-0.239341 1.40955,-0.460758 l 0.78662,-0.991232 c 0.45602,-0.381486 0.87638,-0.771887 1.43835,-1.126887 0.49274,-0.220811 0.8187,-0.48451 1.77331,-0.586556 0.35295,-0.07033 0.69712,-0.01756 1.03595,0.109884 0.22115,0.112648 0.40906,0.249049 0.43423,0.501683 -0.0435,0.305655 -0.14551,0.611311 -0.33041,0.916966 l -0.86392,1.455022 c -0.0906,0.206983 -0.24801,0.34714 -0.26297,0.629749 0.74469,0.230751 1.48938,0.445351 2.23406,0.757072 0.70804,0.21417 1.26007,0.515006 1.84834,0.795713 0.69574,0.268269 1.14354,0.536539 1.63766,0.804808 0.79731,0.459999 1.44189,0.919998 2.11887,1.379997 l 0.81164,0.691138 c 0.36075,-0.520586 0.60859,-0.935283 1.4247,-1.563393 0.53681,-0.362888 1.03362,-0.739896 1.8006,-1.021547 0.61341,-0.14475 1.15694,-0.337544 1.98246,-0.336473 0.32041,0.01491 0.88636,0.02027 0.98972,0.261448 l -0.86846,0.701747 c -0.36629,0.297613 -0.73257,0.734239 -1.09885,1.13825 -0.41351,0.635554 -0.62186,1.06594 -0.76844,1.434563 -0.1031,0.390532 -0.24312,0.781063 -0.18491,1.171595 0.003,0.427986 0.31059,0.970284 0.52139,1.476242 l 1.09202,1.333768 1.30498,1.140528 c -0.22978,0.371096 -0.19668,0.269952 -0.79496,0.566851 -0.45823,0.125502 -0.91646,0.107749 -1.37469,0.05078 l -1.13674,-0.409225 c -0.43562,-0.31509 -0.95192,-0.610508 -1.21404,-0.938945 l -1.08671,-1.093539 -0.61157,-0.759339 c -0.23692,0.357494 -0.51966,0.688801 -0.85558,0.989718 -0.46982,0.401746 -0.96833,0.731723 -1.46563,1.064743 l -1.16932,0.604745 -1.2974,0.572156 c -0.98117,0.402489 -1.974,0.746627 -2.96916,1.079139 l -1.28147,0.375124 c -0.0232,0.265728 0.10831,0.454088 0.3107,0.607017 l 0.90409,0.653245 0.72827,0.642637 c -0.24022,0.200457 -0.58486,0.279099 -0.90485,0.386488 -0.28722,0.07493 -0.66886,0.03971 -1.03745,0.01971 -0.57938,-0.171147 -1.05525,-0.418195 -1.42244,-0.744944 l -0.59263,-0.555483 -0.55851,-0.731303 c -0.36451,-0.158727 -0.72902,-0.24914 -1.09354,-0.30919 l -2.29772,-0.270544 c -1.08436,-0.07756 -2.182,-0.234737 -3.30866,-0.566092 -0.85467,-0.328959 -1.67228,-0.732038 -2.42807,-1.258749 -0.61472,-0.529826 -1.1967,-1.052095 -1.62932,-1.539898 z"
             style="fill:#c3ead8;fill-opacity:1;stroke:#c3ead8;stroke-width:0.05;stroke-linecap:butt;stroke-linejoin:miter;stroke-miterlimit:4;stroke-opacity:1;stroke-dasharray:none" />
          <path
             transform="matrix(1.4073729,0,0,1.4073729,-62.997722,-14.841239)"
             d="m 149.31198,30.271761 c 0,0.4623 -0.37477,0.837068 -0.83707,0.837068 -0.4623,0 -0.83706,-0.374768 -0.83706,-0.837068 0,-0.4623 0.37476,-0.837068 0.83706,-0.837068 0.4623,0 0.83707,0.374768 0.83707,0.837068 z"
             sodipodi:ry="0.83706784"
             sodipodi:rx="0.83706784"
             sodipodi:cy="30.271761"
             sodipodi:cx="148.47491"
             id="path4140"
             style="fill:#28429d;fill-opacity:1;stroke:#28429d;stroke-width:0.05;stroke-linecap:butt;stroke-linejoin:miter;stroke-miterlimit:4;stroke-opacity:1;stroke-dasharray:none"
             sodipodi:type="arc" />
          <path
             sodipodi:nodetypes="cccccccccccccccccccccccccccc"
             inkscape:connector-curvature="0"
             id="path4142"
             d="m 148.19466,34.658821 0.68639,-0.611604 0.84422,-1.04983 0.60178,-1.177394 c 0.16887,-0.357391 0.32071,-0.788647 0.37693,-1.230524 l 0.10345,-1.001212 c -0.006,-0.436998 -0.0119,-0.873585 -0.10099,-1.365857 -0.0824,-0.508593 -0.20901,-1.031936 -0.41863,-1.582941 l -0.5887,-1.242805 -0.70644,-1.085818 -0.20931,-0.340137 0.50409,0.437425 0.81641,0.847484 0.38715,0.517171 0.55556,0.997502 0.28781,0.811093 0.18315,0.627944 0.10466,0.588697 0.0262,0.798012 -0.0523,0.771847 -0.18315,0.798011 -0.21302,0.694156 -0.40184,0.653306 -0.34013,0.457876 -0.46159,0.511057 -0.72683,0.553109 -0.73466,0.49261 z"
             style="fill:#28429d;fill-opacity:1;stroke:#28429d;stroke-width:0.05;stroke-linecap:butt;stroke-linejoin:miter;stroke-miterlimit:4;stroke-opacity:1;stroke-dasharray:none" />
        </g>
      </g>
    </g>
  </g>
</svg>
