<?xml version="1.0" encoding="UTF-8" standalone="no"?>
<!-- Created with Inkscape (http://www.inkscape.org/) -->

<svg
   xmlns:dc="http://purl.org/dc/elements/1.1/"
   xmlns:cc="http://creativecommons.org/ns#"
   xmlns:rdf="http://www.w3.org/1999/02/22-rdf-syntax-ns#"
   xmlns:svg="http://www.w3.org/2000/svg"
   xmlns="http://www.w3.org/2000/svg"
   xmlns:sodipodi="http://sodipodi.sourceforge.net/DTD/sodipodi-0.dtd"
   xmlns:inkscape="http://www.inkscape.org/namespaces/inkscape"
   width="262.20471"
   height="372.04724"
   id="svg4209"
   version="1.1"
   inkscape:version="0.48.5 r10040"
   sodipodi:docname="IconoAlergenoGranosSesamo.svg">
  <defs
     id="defs4211" />
  <sodipodi:namedview
     id="base"
     pagecolor="#ffffff"
     bordercolor="#666666"
     borderopacity="1.0"
     inkscape:pageopacity="0.0"
     inkscape:pageshadow="2"
     inkscape:zoom="0.56656371"
     inkscape:cx="430.45687"
     inkscape:cy="399.3023"
     inkscape:document-units="px"
     inkscape:current-layer="layer1"
     showgrid="false"
     inkscape:window-width="1280"
     inkscape:window-height="924"
     inkscape:window-x="0"
     inkscape:window-y="28"
     inkscape:window-maximized="1" />
  <metadata
     id="metadata4214">
    <rdf:RDF>
      <cc:Work
         rdf:about="">
        <dc:format>image/svg+xml</dc:format>
        <dc:type
           rdf:resource="http://purl.org/dc/dcmitype/StillImage" />
        <dc:title></dc:title>
      </cc:Work>
    </rdf:RDF>
  </metadata>
  <g
     inkscape:label="Capa 1"
     inkscape:groupmode="layer"
     id="layer1"
     transform="translate(0,-680.31494)">
    <g
       id="g3161"
       transform="matrix(5.5766335,0,0,5.5766335,-1112.9951,-1035.2445)">
      <text
         sodipodi:linespacing="125%"
         id="text4033-9-9"
         y="363.09369"
         x="222.97565"
         style="font-size:15px;font-style:normal;font-weight:normal;text-align:center;line-height:125%;letter-spacing:0px;word-spacing:0px;text-anchor:middle;fill:#000000;fill-opacity:1;stroke:none;font-family:Sans"
         xml:space="preserve"><tspan
           style="font-size:5.5px"
           id="tspan4037-1-74"
           y="363.09369"
           x="222.97565"
           sodipodi:role="line">GRANOS</tspan><tspan
           id="tspan3304"
           style="font-size:5.5px"
           y="369.96869"
           x="222.97565"
           sodipodi:role="line">DE SÉSAMO</tspan></text>
      <g
         id="g3152">
        <path
           sodipodi:type="arc"
           style="fill:#9a8e6c;fill-opacity:1;stroke:#9a8e6c;stroke-width:3;stroke-linecap:round;stroke-linejoin:round;stroke-miterlimit:4;stroke-opacity:1;stroke-dasharray:none;stroke-dashoffset:0"
           id="path3230-2-6"
           sodipodi:cx="21.573027"
           sodipodi:cy="29.287827"
           sodipodi:rx="18.363815"
           sodipodi:ry="18.720394"
           d="m 39.936842,29.287827 c 0,10.338988 -8.22176,18.720394 -18.363815,18.720394 -10.142055,0 -18.3638157,-8.381406 -18.3638157,-18.720394 0,-10.338989 8.2217607,-18.720395 18.3638157,-18.720395 10.142055,0 18.363815,8.381406 18.363815,18.720395 z"
           transform="matrix(1.0403305,0,0,1.0205147,200.64805,303.71423)" />
        <g
           id="g3141"
           transform="translate(1.8080426,0)">
          <path
             sodipodi:nodetypes="ccccccccccccccccccccccccccccccccccc"
             inkscape:connector-curvature="0"
             id="path4248"
             d="m 224.05263,331.42229 0.27846,-0.37129 0.49505,-0.46411 0.68069,-0.49505 1.05198,-0.80445 0.88181,-0.57237 0.78899,-0.47957 0.81994,-0.46412 1.11382,-0.49509 1.16031,-0.38674 0.55693,-0.0773 0.40221,0.0309 0.20111,0.13923 c -1.7935,1.98176 -3.62729,3.95344 -5.58476,5.8942 0.071,0.14027 -0.0292,0.43036 0.34034,0.3094 1.88982,-1.92357 3.74093,-3.87293 5.50742,-5.87872 l 0.0464,0.52596 c -0.0175,0.29285 -0.0496,0.61486 -0.10827,0.99003 l -0.24752,1.26856 -0.46412,1.17585 -1.17574,2.50619 -0.6807,1.20668 -0.46411,0.74257 -0.49506,0.57242 -0.68068,0.60333 -0.80445,0.58787 -1.16028,0.41771 c -0.40739,0.12238 -0.81477,0.22288 -1.22215,0.13921 l -0.92821,-0.27842 -0.71164,-0.40226 c -0.30143,-0.29676 -0.53974,-0.65663 -0.80446,-0.9901 -0.19532,-0.45354 -0.28936,-0.86657 -0.27846,-1.23762 l 0.0619,-1.11387 c 0.20111,-0.61911 0.55148,-1.3575 0.77351,-1.67079 z"
             style="fill:#ffffff;fill-opacity:1;stroke:#ffffff;stroke-width:0.05;stroke-linecap:round;stroke-linejoin:round;stroke-miterlimit:4;stroke-opacity:1;stroke-dasharray:none" />
          <path
             sodipodi:nodetypes="ccccccccccccccccccccccccccccccccccc"
             inkscape:connector-curvature="0"
             id="path4248-0"
             d="m 217.132,333.61727 -0.23871,0.31461 -0.42113,0.39076 -0.57668,0.41421 -0.89189,0.67402 -0.74592,0.4773 -0.66687,0.39906 -0.69244,0.38525 -0.93839,0.40689 -0.97541,0.31291 -0.46639,0.0571 -0.33537,-0.0334 -0.16563,-0.12317 c 1.5307,-1.67399 3.09489,-3.33863 4.76184,-4.97459 -0.057,-0.12185 0.0316,-0.36965 -0.27908,-0.27189 -1.61017,1.62231 -3.18844,3.26747 -4.69699,4.96259 l -0.0301,-0.45315 c 0.0195,-0.25158 0.0517,-0.52799 0.10687,-0.84967 l 0.22779,-1.08687 0.40714,-1.00343 1.02353,-2.13555 0.58851,-1.02628 0.39992,-0.63079 0.42295,-0.48392 0.57847,-0.50734 0.68157,-0.49194 0.9759,-0.33956 c 0.34226,-0.0983 0.68412,-0.17784 1.02294,-0.099 l 0.77052,0.25524 0.58761,0.35807 c 0.24679,0.26036 0.43983,0.57393 0.65536,0.86524 0.15557,0.3934 0.22724,0.75023 0.21197,1.06919 l -0.0702,0.95696 c -0.17824,0.52907 -0.48311,1.1582 -0.67374,1.42387 z"
             style="fill:#ffffff;fill-opacity:1;stroke:#ffffff;stroke-width:0.04238347;stroke-linecap:round;stroke-linejoin:round;stroke-miterlimit:4;stroke-opacity:1;stroke-dasharray:none;display:inline" />
          <path
             sodipodi:nodetypes="ccccccccccccccccccccccccccccccccccc"
             inkscape:connector-curvature="0"
             id="path4248-5"
             d="m 220.01263,325.03413 -0.14022,-0.31726 -0.13249,-0.49797 -0.0969,-0.63649 -0.17321,-0.99694 -0.0844,-0.80131 -0.0561,-0.70599 -0.0379,-0.72214 0.0292,-0.93535 0.10728,-0.93091 0.11603,-0.41032 0.13552,-0.26709 0.14151,-0.0918 c 0.65901,1.90531 1.30029,3.83504 1.88713,5.83967 0.10426,-0.002 0.24799,0.16518 0.28347,-0.13055 -0.59628,-1.95217 -1.21922,-3.88632 -1.90041,-5.7811 l 0.32697,0.14524 c 0.16944,0.11076 0.35201,0.24143 0.55853,0.40835 l 0.68399,0.59829 0.56569,0.7165 1.15139,1.65582 0.52101,0.87632 0.30746,0.57047 0.19705,0.53448 0.16142,0.67297 0.11619,0.75316 -0.0888,0.94133 c -0.0456,0.32233 -0.10436,0.63727 -0.27282,0.89015 l -0.43614,0.54661 -0.44689,0.35544 c -0.26461,0.10797 -0.54847,0.15111 -0.82427,0.22138 -0.32716,-0.0181 -0.6007,-0.0924 -0.81867,-0.22496 l -0.64583,-0.41809 c -0.31043,-0.3474 -0.64852,-0.83799 -0.7706,-1.09676 z"
             style="fill:#ffffff;fill-opacity:1;stroke:#ffffff;stroke-width:0.03568314;stroke-linecap:round;stroke-linejoin:round;stroke-miterlimit:4;stroke-opacity:1;stroke-dasharray:none;display:inline" />
          <path
             sodipodi:nodetypes="ccccccccccccccccccccccccccccccccccc"
             inkscape:connector-curvature="0"
             id="path4248-1"
             d="m 223.17006,316.66457 -0.20885,-0.11238 -0.28123,-0.22628 -0.32091,-0.33047 -0.51406,-0.50541 -0.38404,-0.43743 -0.32866,-0.39579 -0.32579,-0.41595 -0.38035,-0.58333 -0.33695,-0.62511 -0.11194,-0.31467 -0.0407,-0.23902 0.0364,-0.13622 c 1.15689,0.77918 2.31469,1.58324 3.47522,2.4637 0.0547,-0.0604 0.20181,-0.0411 0.0955,-0.24051 -1.14335,-0.84328 -2.29326,-1.66048 -3.45748,-2.42064 l 0.23537,-0.0982 c 0.13699,-0.0294 0.28941,-0.0541 0.46989,-0.0706 l 0.617,-0.027 0.60411,0.11202 1.31318,0.34766 0.64799,0.2343 0.40497,0.17058 0.33101,0.21164 0.37066,0.31583 0.38056,0.39018 0.35118,0.62091 c 0.11209,0.22129 0.2142,0.44553 0.23163,0.69467 l -6e-4,0.57951 -0.0872,0.46982 c -0.095,0.21609 -0.22775,0.40385 -0.3447,0.60346 -0.18166,0.17533 -0.35858,0.28605 -0.53063,0.32984 l -0.52044,0.11441 c -0.31216,-0.0337 -0.6996,-0.13846 -0.87405,-0.22574 z"
             style="fill:#ffffff;fill-opacity:1;stroke:#ffffff;stroke-width:0.02677974;stroke-linecap:round;stroke-linejoin:round;stroke-miterlimit:4;stroke-opacity:1;stroke-dasharray:none;display:inline" />
          <path
             sodipodi:nodetypes="ccccccccccccccccccccccccccccccccccc"
             inkscape:connector-curvature="0"
             id="path4248-19"
             d="m 219.94484,346.55265 -0.22223,-0.2922 -0.23856,-0.47033 -0.21371,-0.61079 -0.36173,-0.95385 -0.22179,-0.77397 -0.17242,-0.68434 -0.15183,-0.70259 -0.0981,-0.92046 9.1e-4,-0.92652 0.087,-0.41756 0.13207,-0.2798 0.1649,-0.10886 c 1.10419,1.77924 2.18956,3.58475 3.21723,5.47094 0.13099,-0.0156 0.33601,0.12872 0.33802,-0.16572 -1.03199,-1.8335 -2.09492,-3.64581 -3.22551,-5.41176 l 0.43252,0.0987 c 0.22929,0.0859 0.47791,0.18967 0.76195,0.32568 l 0.94724,0.49511 0.81536,0.62672 1.68804,1.46911 0.78216,0.78929 0.46926,0.51804 0.32508,0.49749 0.30021,0.63795 0.25481,0.72256 0.0238,0.93427 c -0.0111,0.32193 -0.0394,0.63839 -0.21509,0.90865 l -0.47023,0.59376 -0.51132,0.40788 c -0.31754,0.14107 -0.66863,0.22119 -1.0057,0.32681 -0.41443,0.0259 -0.76947,-0.0105 -1.06295,-0.11132 l -0.87323,-0.32361 c -0.44086,-0.29905 -0.93715,-0.73474 -1.12812,-0.97204 z"
             style="fill:#ffffff;fill-opacity:1;stroke:#ffffff;stroke-width:0.03993879;stroke-linecap:round;stroke-linejoin:round;stroke-miterlimit:4;stroke-opacity:1;stroke-dasharray:none;display:inline" />
        </g>
      </g>
    </g>
  </g>
</svg>
