<?xml version="1.0" encoding="UTF-8" standalone="no"?>
<!-- Created with Inkscape (http://www.inkscape.org/) -->

<svg
   xmlns:dc="http://purl.org/dc/elements/1.1/"
   xmlns:cc="http://creativecommons.org/ns#"
   xmlns:rdf="http://www.w3.org/1999/02/22-rdf-syntax-ns#"
   xmlns:svg="http://www.w3.org/2000/svg"
   xmlns="http://www.w3.org/2000/svg"
   xmlns:sodipodi="http://sodipodi.sourceforge.net/DTD/sodipodi-0.dtd"
   xmlns:inkscape="http://www.inkscape.org/namespaces/inkscape"
   width="262.20471"
   height="372.04724"
   id="svg4209"
   version="1.1"
   inkscape:version="0.48.5 r10040"
   sodipodi:docname="IconoAlergenoDioxidoAzufreSulfitos.svg">
  <defs
     id="defs4211" />
  <sodipodi:namedview
     id="base"
     pagecolor="#ffffff"
     bordercolor="#666666"
     borderopacity="1.0"
     inkscape:pageopacity="0.0"
     inkscape:pageshadow="2"
     inkscape:zoom="0.20031052"
     inkscape:cx="751.07539"
     inkscape:cy="884.34989"
     inkscape:document-units="px"
     inkscape:current-layer="layer1"
     showgrid="false"
     inkscape:window-width="1280"
     inkscape:window-height="924"
     inkscape:window-x="0"
     inkscape:window-y="28"
     inkscape:window-maximized="1" />
  <metadata
     id="metadata4214">
    <rdf:RDF>
      <cc:Work
         rdf:about="">
        <dc:format>image/svg+xml</dc:format>
        <dc:type
           rdf:resource="http://purl.org/dc/dcmitype/StillImage" />
        <dc:title></dc:title>
      </cc:Work>
    </rdf:RDF>
  </metadata>
  <g
     inkscape:label="Capa 1"
     inkscape:groupmode="layer"
     id="layer1"
     transform="translate(0,-680.31494)">
    <g
       id="g3298"
       transform="matrix(4.1030005,0,0,4.1030005,-784.27251,-540.32916)">
      <text
         sodipodi:linespacing="125%"
         id="text4033-9-92"
         y="364.43274"
         x="223.00758"
         style="font-size:15px;font-style:normal;font-weight:normal;text-align:center;line-height:125%;letter-spacing:0px;word-spacing:0px;text-anchor:middle;fill:#000000;fill-opacity:1;stroke:none;font-family:Sans"
         xml:space="preserve"><tspan
           style="font-size:5.5px"
           id="tspan4037-1-9"
           y="364.43274"
           x="223.00758"
           sodipodi:role="line">DIÓXIDO DE AZUFRE</tspan><tspan
           id="tspan3318"
           style="font-size:5.5px"
           y="371.30774"
           x="223.00758"
           sodipodi:role="line">Y SULFITOS</tspan></text>
      <g
         id="g3276">
        <path
           sodipodi:type="arc"
           style="fill:#82104e;fill-opacity:1;stroke:#82104e;stroke-width:3;stroke-linecap:round;stroke-linejoin:round;stroke-miterlimit:4;stroke-opacity:1;stroke-dasharray:none;stroke-dashoffset:0"
           id="path3230-2-9"
           sodipodi:cx="21.573027"
           sodipodi:cy="29.287827"
           sodipodi:rx="18.363815"
           sodipodi:ry="18.720394"
           d="m 39.936842,29.287827 c 0,10.338988 -8.22176,18.720394 -18.363815,18.720394 -10.142055,0 -18.3638157,-8.381406 -18.3638157,-18.720394 0,-10.338989 8.2217607,-18.720395 18.3638157,-18.720395 10.142055,0 18.363815,8.381406 18.363815,18.720395 z"
           transform="matrix(1.0403305,0,0,1.0205147,200.65581,305.0533)" />
        <g
           id="g4196"
           transform="translate(-290.43647,304.95931)">
          <g
             id="g4054">
            <text
               xml:space="preserve"
               style="font-size:40px;font-style:normal;font-weight:normal;line-height:125%;letter-spacing:0px;word-spacing:0px;fill:#ffffff;fill-opacity:1;stroke:none;font-family:Sans"
               x="504.79108"
               y="23.955332"
               id="text4061"
               sodipodi:linespacing="125%"><tspan
                 sodipodi:role="line"
                 id="tspan4063"
                 x="504.79108"
                 y="23.955332"
                 style="font-size:10px;font-weight:bold;fill:#ffffff;fill-opacity:1;-inkscape-font-specification:Sans Bold">E</tspan></text>
            <text
               xml:space="preserve"
               style="font-size:40px;font-style:normal;font-weight:normal;line-height:125%;letter-spacing:0px;word-spacing:0px;fill:#ffffff;fill-opacity:1;stroke:none;font-family:Sans"
               x="510.72043"
               y="24.006355"
               id="text4061-7"
               sodipodi:linespacing="125%"><tspan
                 sodipodi:role="line"
                 id="tspan4063-7"
                 x="510.72043"
                 y="24.006355"
                 style="font-size:10px;font-weight:bold;fill:#ffffff;fill-opacity:1;-inkscape-font-specification:Sans Bold">-</tspan></text>
            <text
               xml:space="preserve"
               style="font-size:40px;font-style:normal;font-weight:normal;line-height:125%;letter-spacing:0px;word-spacing:0px;fill:#ffffff;fill-opacity:1;stroke:none;font-family:Sans"
               x="513.88678"
               y="23.955332"
               id="text4061-76"
               sodipodi:linespacing="125%"><tspan
                 sodipodi:role="line"
                 id="tspan4063-8"
                 x="513.88678"
                 y="23.955332"
                 style="font-size:10px;font-weight:bold;fill:#ffffff;fill-opacity:1;-inkscape-font-specification:Sans Bold">X</tspan></text>
          </g>
          <path
             sodipodi:nodetypes="ccccccccccccccccccccccc"
             inkscape:connector-curvature="0"
             id="path4062"
             d="m 519.65999,43.21305 -0.019,-1.26034 6.03008,-3.582736 -0.0761,-7.437103 -5.99205,-3.392605 -0.0162,-1.377137 -0.9181,-0.0027 0,1.349981 -5.17718,3.017759 -5.27224,-3.053067 0.0217,-1.290224 -0.87734,-0.0163 0,1.290223 -5.98392,3.430622 -0.0516,7.575629 6.03008,3.490389 -0.003,1.230466 0.90995,0.03259 -0.008,-1.273928 5.15545,-3.036763 5.25323,2.993312 -0.038,1.336392 z"
             style="fill:#ffffff;fill-opacity:1;stroke:#ffffff;stroke-width:0.05;stroke-linecap:round;stroke-linejoin:round;stroke-miterlimit:4;stroke-opacity:1;stroke-dasharray:none" />
          <path
             sodipodi:nodetypes="ccccccc"
             inkscape:connector-curvature="0"
             id="path4074"
             d="m 507.84861,29.120614 4.80313,2.778672 0.0132,5.555137 -4.87369,2.91099 -4.87812,-2.813958 0.022,-5.711709 z"
             style="fill:#82104e;fill-opacity:1;stroke:#82104e;stroke-width:0.05;stroke-linecap:butt;stroke-linejoin:miter;stroke-miterlimit:4;stroke-opacity:1;stroke-dasharray:none" />
          <path
             sodipodi:nodetypes="ccccc"
             inkscape:connector-curvature="0"
             id="path3266"
             d="m 503.8512,32.182889 0.47639,0.80235 3.71088,-2.156317 -0.44704,-0.79196 z"
             style="fill:#ffffff;fill-opacity:1;stroke:#ffffff;stroke-width:0.05;stroke-linecap:butt;stroke-linejoin:miter;stroke-miterlimit:4;stroke-opacity:1;stroke-dasharray:none" />
          <path
             sodipodi:nodetypes="ccccccc"
             inkscape:connector-curvature="0"
             id="path4074-5"
             d="m 519.27475,28.820864 4.80313,2.778672 0.0132,5.555137 -4.87369,2.91099 -4.87812,-2.813958 0.022,-5.711709 z"
             style="fill:#82104e;fill-opacity:1;stroke:#82104e;stroke-width:0.05;stroke-linecap:butt;stroke-linejoin:miter;stroke-miterlimit:4;stroke-opacity:1;stroke-dasharray:none" />
          <path
             sodipodi:nodetypes="ccccc"
             inkscape:connector-curvature="0"
             id="path3266-0"
             d="m 515.19695,32.173577 0.47639,0.80235 3.71088,-2.156317 -0.44704,-0.79196 z"
             style="fill:#ffffff;fill-opacity:1;stroke:#ffffff;stroke-width:0.05;stroke-linecap:butt;stroke-linejoin:miter;stroke-miterlimit:4;stroke-opacity:1;stroke-dasharray:none" />
          <path
             inkscape:connector-curvature="0"
             id="path4054"
             d="m 522.39735,32.565698 0.88659,0.01773 -0.0177,4.486152 -3.91873,2.322869 -0.4433,-0.815664 3.47544,-1.968233 z"
             style="fill:#ffffff;fill-opacity:1;stroke:#ffffff;stroke-width:0.05;stroke-linecap:butt;stroke-linejoin:miter;stroke-miterlimit:4;stroke-opacity:1;stroke-dasharray:none" />
          <path
             sodipodi:nodetypes="ccccccc"
             inkscape:connector-curvature="0"
             id="path4054-2"
             d="m 511.00464,32.556833 0.97525,0.01773 -0.0177,4.486152 -3.91873,2.322869 -0.51423,-0.762469 3.47544,-1.985964 z"
             style="fill:#ffffff;fill-opacity:1;stroke:#ffffff;stroke-width:0.05;stroke-linecap:butt;stroke-linejoin:miter;stroke-miterlimit:4;stroke-opacity:1;stroke-dasharray:none" />
          <path
             transform="matrix(1.0149284,0,0,1.040206,-5.2062888,1.7465242)"
             d="m 501.38862,28.692717 c 0,0.731306 -0.60766,1.324148 -1.35725,1.324148 -0.74959,0 -1.35725,-0.592842 -1.35725,-1.324148 0,-0.731307 0.60766,-1.324148 1.35725,-1.324148 0.74959,0 1.35725,0.592841 1.35725,1.324148 z"
             sodipodi:ry="1.3241479"
             sodipodi:rx="1.3572516"
             sodipodi:cy="28.692717"
             sodipodi:cx="500.03137"
             id="path4064"
             style="fill:#ffffff;fill-opacity:1;stroke:#82104e;stroke-width:0.77859682;stroke-linecap:round;stroke-linejoin:round;stroke-miterlimit:4;stroke-opacity:1;stroke-dasharray:none"
             sodipodi:type="arc" />
          <path
             transform="matrix(1.0149284,0,0,1.040206,-5.2697431,7.9797913)"
             d="m 501.38862,28.692717 c 0,0.731306 -0.60766,1.324148 -1.35725,1.324148 -0.74959,0 -1.35725,-0.592842 -1.35725,-1.324148 0,-0.731307 0.60766,-1.324148 1.35725,-1.324148 0.74959,0 1.35725,0.592841 1.35725,1.324148 z"
             sodipodi:ry="1.3241479"
             sodipodi:rx="1.3572516"
             sodipodi:cy="28.692717"
             sodipodi:cx="500.03137"
             id="path4064-8"
             style="fill:#ffffff;fill-opacity:1;stroke:#82104e;stroke-width:0.77859682;stroke-linecap:round;stroke-linejoin:round;stroke-miterlimit:4;stroke-opacity:1;stroke-dasharray:none"
             sodipodi:type="arc" />
          <path
             transform="matrix(1.0149284,0,0,1.040206,5.9985204,8.2838253)"
             d="m 501.38862,28.692717 c 0,0.731306 -0.60766,1.324148 -1.35725,1.324148 -0.74959,0 -1.35725,-0.592842 -1.35725,-1.324148 0,-0.731307 0.60766,-1.324148 1.35725,-1.324148 0.74959,0 1.35725,0.592841 1.35725,1.324148 z"
             sodipodi:ry="1.3241479"
             sodipodi:rx="1.3572516"
             sodipodi:cy="28.692717"
             sodipodi:cx="500.03137"
             id="path4064-2"
             style="fill:#ffffff;fill-opacity:1;stroke:#82104e;stroke-width:0.77859682;stroke-linecap:round;stroke-linejoin:round;stroke-miterlimit:4;stroke-opacity:1;stroke-dasharray:none"
             sodipodi:type="arc" />
          <path
             transform="matrix(1.0149284,0,0,1.040206,17.348381,8.152151)"
             d="m 501.38862,28.692717 c 0,0.731306 -0.60766,1.324148 -1.35725,1.324148 -0.74959,0 -1.35725,-0.592842 -1.35725,-1.324148 0,-0.731307 0.60766,-1.324148 1.35725,-1.324148 0.74959,0 1.35725,0.592841 1.35725,1.324148 z"
             sodipodi:ry="1.3241479"
             sodipodi:rx="1.3572516"
             sodipodi:cy="28.692717"
             sodipodi:cx="500.03137"
             id="path4064-0"
             style="fill:#ffffff;fill-opacity:1;stroke:#82104e;stroke-width:0.77859682;stroke-linecap:round;stroke-linejoin:round;stroke-miterlimit:4;stroke-opacity:1;stroke-dasharray:none"
             sodipodi:type="arc" />
        </g>
      </g>
    </g>
  </g>
</svg>
